<mxfile host="app.diagrams.net" agent="Mozilla/5.0 (Windows NT 10.0; Win64; x64) AppleWebKit/537.36 (KHTML, like Gecko) Chrome/128.0.0.0 Safari/537.36" version="24.7.13">
  <diagram id="XOhDwPLK-k8w6zGNZeyG" name="Page-1">
    <mxGraphModel dx="882" dy="578" grid="1" gridSize="10" guides="1" tooltips="1" connect="1" arrows="1" fold="1" page="1" pageScale="1" pageWidth="850" pageHeight="1100" math="0" shadow="0">
      <root>
        <mxCell id="0" />
        <mxCell id="1" parent="0" />
        <mxCell id="VbWczC1eKwhh6Bpoh3iP-3" value="" style="swimlane;startSize=0;" parent="1" vertex="1">
          <mxGeometry x="40" y="40" width="280" height="600" as="geometry" />
        </mxCell>
        <mxCell id="VbWczC1eKwhh6Bpoh3iP-17" style="edgeStyle=orthogonalEdgeStyle;rounded=0;orthogonalLoop=1;jettySize=auto;html=1;exitX=0.5;exitY=1;exitDx=0;exitDy=0;entryX=0.5;entryY=0;entryDx=0;entryDy=0;" parent="VbWczC1eKwhh6Bpoh3iP-3" source="VbWczC1eKwhh6Bpoh3iP-4" target="VbWczC1eKwhh6Bpoh3iP-5" edge="1">
          <mxGeometry relative="1" as="geometry" />
        </mxCell>
        <mxCell id="VbWczC1eKwhh6Bpoh3iP-4" value="Kafka" style="rounded=1;whiteSpace=wrap;html=1;" parent="VbWczC1eKwhh6Bpoh3iP-3" vertex="1">
          <mxGeometry x="40" y="120" width="80" height="40" as="geometry" />
        </mxCell>
        <mxCell id="VbWczC1eKwhh6Bpoh3iP-18" style="edgeStyle=orthogonalEdgeStyle;rounded=0;orthogonalLoop=1;jettySize=auto;html=1;exitX=0.5;exitY=1;exitDx=0;exitDy=0;entryX=0.5;entryY=0;entryDx=0;entryDy=0;" parent="VbWczC1eKwhh6Bpoh3iP-3" source="VbWczC1eKwhh6Bpoh3iP-5" target="VbWczC1eKwhh6Bpoh3iP-6" edge="1">
          <mxGeometry relative="1" as="geometry" />
        </mxCell>
        <mxCell id="VbWczC1eKwhh6Bpoh3iP-5" value="Hard negative mining" style="rounded=1;whiteSpace=wrap;html=1;" parent="VbWczC1eKwhh6Bpoh3iP-3" vertex="1">
          <mxGeometry x="40" y="200" width="80" height="40" as="geometry" />
        </mxCell>
        <mxCell id="VbWczC1eKwhh6Bpoh3iP-20" style="edgeStyle=orthogonalEdgeStyle;rounded=0;orthogonalLoop=1;jettySize=auto;html=1;exitX=0.5;exitY=1;exitDx=0;exitDy=0;entryX=0.5;entryY=0;entryDx=0;entryDy=0;" parent="VbWczC1eKwhh6Bpoh3iP-3" source="VbWczC1eKwhh6Bpoh3iP-6" target="VbWczC1eKwhh6Bpoh3iP-7" edge="1">
          <mxGeometry relative="1" as="geometry" />
        </mxCell>
        <mxCell id="VbWczC1eKwhh6Bpoh3iP-6" value="Hard negative images" style="rounded=1;whiteSpace=wrap;html=1;" parent="VbWczC1eKwhh6Bpoh3iP-3" vertex="1">
          <mxGeometry x="40" y="280" width="80" height="40" as="geometry" />
        </mxCell>
        <mxCell id="VbWczC1eKwhh6Bpoh3iP-21" style="edgeStyle=orthogonalEdgeStyle;rounded=0;orthogonalLoop=1;jettySize=auto;html=1;exitX=0.5;exitY=1;exitDx=0;exitDy=0;entryX=0.5;entryY=0;entryDx=0;entryDy=0;" parent="VbWczC1eKwhh6Bpoh3iP-3" source="VbWczC1eKwhh6Bpoh3iP-7" target="VbWczC1eKwhh6Bpoh3iP-8" edge="1">
          <mxGeometry relative="1" as="geometry" />
        </mxCell>
        <mxCell id="VbWczC1eKwhh6Bpoh3iP-7" value="Preprocessing" style="rounded=1;whiteSpace=wrap;html=1;" parent="VbWczC1eKwhh6Bpoh3iP-3" vertex="1">
          <mxGeometry x="40" y="360" width="80" height="40" as="geometry" />
        </mxCell>
        <mxCell id="VbWczC1eKwhh6Bpoh3iP-22" style="edgeStyle=orthogonalEdgeStyle;rounded=0;orthogonalLoop=1;jettySize=auto;html=1;exitX=0.5;exitY=1;exitDx=0;exitDy=0;entryX=0.5;entryY=0;entryDx=0;entryDy=0;" parent="VbWczC1eKwhh6Bpoh3iP-3" source="VbWczC1eKwhh6Bpoh3iP-8" target="VbWczC1eKwhh6Bpoh3iP-9" edge="1">
          <mxGeometry relative="1" as="geometry" />
        </mxCell>
        <mxCell id="VbWczC1eKwhh6Bpoh3iP-8" value="Augmentation" style="rounded=1;whiteSpace=wrap;html=1;" parent="VbWczC1eKwhh6Bpoh3iP-3" vertex="1">
          <mxGeometry x="40" y="440" width="80" height="40" as="geometry" />
        </mxCell>
        <mxCell id="VbWczC1eKwhh6Bpoh3iP-23" style="edgeStyle=orthogonalEdgeStyle;rounded=0;orthogonalLoop=1;jettySize=auto;html=1;exitX=1;exitY=0.5;exitDx=0;exitDy=0;entryX=0;entryY=0.5;entryDx=0;entryDy=0;" parent="VbWczC1eKwhh6Bpoh3iP-3" source="VbWczC1eKwhh6Bpoh3iP-9" target="VbWczC1eKwhh6Bpoh3iP-12" edge="1">
          <mxGeometry relative="1" as="geometry" />
        </mxCell>
        <mxCell id="VbWczC1eKwhh6Bpoh3iP-9" value="Preprocessed dataset" style="rounded=1;whiteSpace=wrap;html=1;" parent="VbWczC1eKwhh6Bpoh3iP-3" vertex="1">
          <mxGeometry x="40" y="520" width="80" height="40" as="geometry" />
        </mxCell>
        <mxCell id="VbWczC1eKwhh6Bpoh3iP-19" style="edgeStyle=orthogonalEdgeStyle;rounded=0;orthogonalLoop=1;jettySize=auto;html=1;exitX=0.5;exitY=1;exitDx=0;exitDy=0;entryX=1;entryY=0.5;entryDx=0;entryDy=0;" parent="VbWczC1eKwhh6Bpoh3iP-3" source="VbWczC1eKwhh6Bpoh3iP-10" target="VbWczC1eKwhh6Bpoh3iP-7" edge="1">
          <mxGeometry relative="1" as="geometry" />
        </mxCell>
        <mxCell id="VbWczC1eKwhh6Bpoh3iP-10" value="Annotated dataset" style="rounded=1;whiteSpace=wrap;html=1;" parent="VbWczC1eKwhh6Bpoh3iP-3" vertex="1">
          <mxGeometry x="160" y="280" width="80" height="40" as="geometry" />
        </mxCell>
        <mxCell id="VbWczC1eKwhh6Bpoh3iP-12" value="Model training" style="rounded=1;whiteSpace=wrap;html=1;" parent="VbWczC1eKwhh6Bpoh3iP-3" vertex="1">
          <mxGeometry x="160" y="520" width="80" height="40" as="geometry" />
        </mxCell>
        <mxCell id="VbWczC1eKwhh6Bpoh3iP-16" style="edgeStyle=orthogonalEdgeStyle;rounded=0;orthogonalLoop=1;jettySize=auto;html=1;exitX=0.5;exitY=1;exitDx=0;exitDy=0;entryX=0.5;entryY=0;entryDx=0;entryDy=0;" parent="VbWczC1eKwhh6Bpoh3iP-3" source="VbWczC1eKwhh6Bpoh3iP-15" target="VbWczC1eKwhh6Bpoh3iP-4" edge="1">
          <mxGeometry relative="1" as="geometry" />
        </mxCell>
        <mxCell id="VbWczC1eKwhh6Bpoh3iP-15" value="User" style="rounded=1;whiteSpace=wrap;html=1;" parent="VbWczC1eKwhh6Bpoh3iP-3" vertex="1">
          <mxGeometry x="40" y="40" width="80" height="40" as="geometry" />
        </mxCell>
        <mxCell id="VbWczC1eKwhh6Bpoh3iP-34" value="Data pipeline" style="text;html=1;strokeColor=none;fillColor=none;align=center;verticalAlign=middle;whiteSpace=wrap;rounded=0;" parent="VbWczC1eKwhh6Bpoh3iP-3" vertex="1">
          <mxGeometry width="120" height="30" as="geometry" />
        </mxCell>
        <mxCell id="VbWczC1eKwhh6Bpoh3iP-36" value="Report image" style="text;html=1;strokeColor=none;fillColor=none;align=center;verticalAlign=middle;whiteSpace=wrap;rounded=0;" parent="VbWczC1eKwhh6Bpoh3iP-3" vertex="1">
          <mxGeometry x="80" y="80" width="80" height="30" as="geometry" />
        </mxCell>
        <mxCell id="VbWczC1eKwhh6Bpoh3iP-24" value="" style="swimlane;startSize=0;" parent="1" vertex="1">
          <mxGeometry x="360" y="40" width="280" height="440" as="geometry" />
        </mxCell>
        <mxCell id="VbWczC1eKwhh6Bpoh3iP-45" style="edgeStyle=orthogonalEdgeStyle;rounded=0;orthogonalLoop=1;jettySize=auto;html=1;exitX=0.5;exitY=1;exitDx=0;exitDy=0;entryX=0.5;entryY=0;entryDx=0;entryDy=0;" parent="VbWczC1eKwhh6Bpoh3iP-24" source="VbWczC1eKwhh6Bpoh3iP-25" target="VbWczC1eKwhh6Bpoh3iP-29" edge="1">
          <mxGeometry relative="1" as="geometry" />
        </mxCell>
        <mxCell id="VbWczC1eKwhh6Bpoh3iP-25" value="Raw street view images" style="rounded=1;whiteSpace=wrap;html=1;" parent="VbWczC1eKwhh6Bpoh3iP-24" vertex="1">
          <mxGeometry x="40" y="120" width="80" height="40" as="geometry" />
        </mxCell>
        <mxCell id="VbWczC1eKwhh6Bpoh3iP-44" style="edgeStyle=orthogonalEdgeStyle;rounded=0;orthogonalLoop=1;jettySize=auto;html=1;exitX=0.5;exitY=1;exitDx=0;exitDy=0;entryX=0.5;entryY=0;entryDx=0;entryDy=0;" parent="VbWczC1eKwhh6Bpoh3iP-24" source="VbWczC1eKwhh6Bpoh3iP-26" target="VbWczC1eKwhh6Bpoh3iP-25" edge="1">
          <mxGeometry relative="1" as="geometry" />
        </mxCell>
        <mxCell id="VbWczC1eKwhh6Bpoh3iP-26" value="Street view data sourcing team" style="rounded=1;whiteSpace=wrap;html=1;" parent="VbWczC1eKwhh6Bpoh3iP-24" vertex="1">
          <mxGeometry x="40" y="40" width="80" height="40" as="geometry" />
        </mxCell>
        <mxCell id="MM7r48iIPmp7PDk3tkw_-2" style="edgeStyle=orthogonalEdgeStyle;rounded=0;orthogonalLoop=1;jettySize=auto;html=1;exitX=1;exitY=0.25;exitDx=0;exitDy=0;entryX=0.5;entryY=1;entryDx=0;entryDy=0;" edge="1" parent="VbWczC1eKwhh6Bpoh3iP-24" source="VbWczC1eKwhh6Bpoh3iP-28" target="VbWczC1eKwhh6Bpoh3iP-31">
          <mxGeometry relative="1" as="geometry" />
        </mxCell>
        <mxCell id="VbWczC1eKwhh6Bpoh3iP-28" value="Blurring service" style="rounded=1;whiteSpace=wrap;html=1;" parent="VbWczC1eKwhh6Bpoh3iP-24" vertex="1">
          <mxGeometry x="40" y="280" width="80" height="40" as="geometry" />
        </mxCell>
        <mxCell id="VbWczC1eKwhh6Bpoh3iP-46" style="edgeStyle=orthogonalEdgeStyle;rounded=0;orthogonalLoop=1;jettySize=auto;html=1;exitX=0.5;exitY=1;exitDx=0;exitDy=0;entryX=0.5;entryY=0;entryDx=0;entryDy=0;" parent="VbWczC1eKwhh6Bpoh3iP-24" source="VbWczC1eKwhh6Bpoh3iP-29" target="VbWczC1eKwhh6Bpoh3iP-28" edge="1">
          <mxGeometry relative="1" as="geometry" />
        </mxCell>
        <mxCell id="VbWczC1eKwhh6Bpoh3iP-29" value="Preprocessing" style="rounded=1;whiteSpace=wrap;html=1;" parent="VbWczC1eKwhh6Bpoh3iP-24" vertex="1">
          <mxGeometry x="40" y="200" width="80" height="40" as="geometry" />
        </mxCell>
        <mxCell id="VbWczC1eKwhh6Bpoh3iP-47" style="edgeStyle=orthogonalEdgeStyle;rounded=0;orthogonalLoop=1;jettySize=auto;html=1;exitX=0.5;exitY=0;exitDx=0;exitDy=0;entryX=0.5;entryY=1;entryDx=0;entryDy=0;" parent="VbWczC1eKwhh6Bpoh3iP-24" source="VbWczC1eKwhh6Bpoh3iP-30" target="VbWczC1eKwhh6Bpoh3iP-28" edge="1">
          <mxGeometry relative="1" as="geometry" />
        </mxCell>
        <mxCell id="VbWczC1eKwhh6Bpoh3iP-30" value="ML model" style="rounded=1;whiteSpace=wrap;html=1;" parent="VbWczC1eKwhh6Bpoh3iP-24" vertex="1">
          <mxGeometry x="40" y="360" width="80" height="40" as="geometry" />
        </mxCell>
        <mxCell id="MM7r48iIPmp7PDk3tkw_-3" style="edgeStyle=orthogonalEdgeStyle;rounded=0;orthogonalLoop=1;jettySize=auto;html=1;exitX=0.5;exitY=1;exitDx=0;exitDy=0;entryX=1;entryY=0.25;entryDx=0;entryDy=0;" edge="1" parent="VbWczC1eKwhh6Bpoh3iP-24" source="VbWczC1eKwhh6Bpoh3iP-31" target="VbWczC1eKwhh6Bpoh3iP-28">
          <mxGeometry relative="1" as="geometry" />
        </mxCell>
        <mxCell id="VbWczC1eKwhh6Bpoh3iP-31" value="NMS" style="rounded=1;whiteSpace=wrap;html=1;" parent="VbWczC1eKwhh6Bpoh3iP-24" vertex="1">
          <mxGeometry x="160" y="200" width="80" height="40" as="geometry" />
        </mxCell>
        <mxCell id="VbWczC1eKwhh6Bpoh3iP-35" value="Batch inference pipeline" style="text;html=1;strokeColor=none;fillColor=none;align=center;verticalAlign=middle;whiteSpace=wrap;rounded=0;" parent="VbWczC1eKwhh6Bpoh3iP-24" vertex="1">
          <mxGeometry width="160" height="30" as="geometry" />
        </mxCell>
        <mxCell id="VbWczC1eKwhh6Bpoh3iP-37" style="edgeStyle=orthogonalEdgeStyle;rounded=0;orthogonalLoop=1;jettySize=auto;html=1;exitX=1;exitY=0.5;exitDx=0;exitDy=0;entryX=0.5;entryY=1;entryDx=0;entryDy=0;" parent="1" source="VbWczC1eKwhh6Bpoh3iP-12" target="VbWczC1eKwhh6Bpoh3iP-30" edge="1">
          <mxGeometry relative="1" as="geometry" />
        </mxCell>
        <mxCell id="VbWczC1eKwhh6Bpoh3iP-38" value="" style="swimlane;startSize=0;" parent="1" vertex="1">
          <mxGeometry x="680" y="40" width="160" height="200" as="geometry" />
        </mxCell>
        <mxCell id="VbWczC1eKwhh6Bpoh3iP-41" style="edgeStyle=orthogonalEdgeStyle;rounded=0;orthogonalLoop=1;jettySize=auto;html=1;exitX=0.5;exitY=1;exitDx=0;exitDy=0;entryX=0.5;entryY=0;entryDx=0;entryDy=0;" parent="VbWczC1eKwhh6Bpoh3iP-38" source="VbWczC1eKwhh6Bpoh3iP-39" target="VbWczC1eKwhh6Bpoh3iP-40" edge="1">
          <mxGeometry relative="1" as="geometry" />
        </mxCell>
        <mxCell id="VbWczC1eKwhh6Bpoh3iP-39" value="User" style="rounded=1;whiteSpace=wrap;html=1;" parent="VbWczC1eKwhh6Bpoh3iP-38" vertex="1">
          <mxGeometry x="40" y="40" width="80" height="40" as="geometry" />
        </mxCell>
        <mxCell id="VbWczC1eKwhh6Bpoh3iP-40" value="Fetching service" style="rounded=1;whiteSpace=wrap;html=1;" parent="VbWczC1eKwhh6Bpoh3iP-38" vertex="1">
          <mxGeometry x="40" y="120" width="80" height="40" as="geometry" />
        </mxCell>
        <mxCell id="VbWczC1eKwhh6Bpoh3iP-43" value="Fetch iamge" style="text;html=1;strokeColor=none;fillColor=none;align=center;verticalAlign=middle;whiteSpace=wrap;rounded=0;" parent="VbWczC1eKwhh6Bpoh3iP-38" vertex="1">
          <mxGeometry x="80" y="80" width="80" height="30" as="geometry" />
        </mxCell>
        <mxCell id="VbWczC1eKwhh6Bpoh3iP-53" value="Serving" style="text;html=1;strokeColor=none;fillColor=none;align=center;verticalAlign=middle;whiteSpace=wrap;rounded=0;" parent="VbWczC1eKwhh6Bpoh3iP-38" vertex="1">
          <mxGeometry width="80" height="30" as="geometry" />
        </mxCell>
        <mxCell id="VbWczC1eKwhh6Bpoh3iP-32" value="Blurred street view images" style="rounded=1;whiteSpace=wrap;html=1;" parent="1" vertex="1">
          <mxGeometry x="720" y="320" width="80" height="40" as="geometry" />
        </mxCell>
        <mxCell id="VbWczC1eKwhh6Bpoh3iP-48" style="edgeStyle=orthogonalEdgeStyle;rounded=0;orthogonalLoop=1;jettySize=auto;html=1;exitX=1;exitY=0.5;exitDx=0;exitDy=0;entryX=0;entryY=0.5;entryDx=0;entryDy=0;" parent="1" source="VbWczC1eKwhh6Bpoh3iP-28" target="VbWczC1eKwhh6Bpoh3iP-32" edge="1">
          <mxGeometry relative="1" as="geometry" />
        </mxCell>
        <mxCell id="MM7r48iIPmp7PDk3tkw_-1" style="edgeStyle=orthogonalEdgeStyle;rounded=0;orthogonalLoop=1;jettySize=auto;html=1;exitX=0.5;exitY=1;exitDx=0;exitDy=0;" edge="1" parent="1" source="VbWczC1eKwhh6Bpoh3iP-40" target="VbWczC1eKwhh6Bpoh3iP-32">
          <mxGeometry relative="1" as="geometry" />
        </mxCell>
      </root>
    </mxGraphModel>
  </diagram>
</mxfile>
